<?xml version="1.0" encoding="utf-8"?>
<!-- Generator: Adobe Illustrator 23.0.1, SVG Export Plug-In . SVG Version: 6.00 Build 0)  -->
<svg version="1.1" id="Layer_1" xmlns="http://www.w3.org/2000/svg" xmlns:xlink="http://www.w3.org/1999/xlink" x="0px" y="0px"
	 viewBox="0 0 159.9 28.9" enable-background="new 0 0 159.9 28.9" xml:space="preserve">
<g>
	<g>
		<path fill="#FFFFFF" d="M21,27.6l-3-7.7h-5.8l-3,7.7H0.8L9.9,3.7c0.6-1.5,2-2.4,3.6-2.4h14.9c6.6,0,10.6,3,8.2,9.3
			c-1.7,4.3-5.2,7.1-9.4,8.4l3.6,8.6H21z M22.9,13.7c2.2,0,4.1-0.7,4.9-2.9c0.9-2.3-0.5-2.9-2.7-2.9h-8.3l-2.2,5.9H22.9z"/>
		<path fill="#FFFFFF" d="M49.8,4.1l1.6,7.6l9.1-9.4C61.1,1.7,62,1.3,63,1.3h7.9l-18,17.5l-3.4,8.8h-8.6l3.4-8.8L39.7,1.3h6.6
			C48,1.3,49.4,2.5,49.8,4.1z"/>
		<path fill="#FFFFFF" d="M103.2,1.3L93.1,27.6h-5.3c-1.3,0-2.6-0.7-3.2-1.9l-7.2-13.8l-6,15.7H63L73.1,1.3h6.9c1.4,0,2.6,0.8,3.2,2
			l6.2,12.3l5.5-14.3H103.2z"/>
		<path fill="#FFFFFF" d="M125.1,20.6l-2.7,7h-20.9c-1.7,0-2.8-1.7-2.2-3.2l8.9-23.1h8.6l-7.4,19.3H125.1z"/>
		<path fill="#FFFFFF" d="M138.1,4.3l1.5,7.4l9-9.3c0.7-0.7,1.7-1.2,2.7-1.2h7.8l-18,17.5l-3.4,8.8h-8.6l3.4-8.8L128,1.3h6.3
			C136.2,1.3,137.7,2.6,138.1,4.3z"/>
	</g>
</g>
</svg>
